<?xml version="1.0" standalone="no"?>
<!DOCTYPE svg PUBLIC "-//W3C//DTD SVG 20010904//EN"
 "http://www.w3.org/TR/2001/REC-SVG-20010904/DTD/svg10.dtd">
<svg version="1.0" xmlns="http://www.w3.org/2000/svg"
 width="225.000000pt" height="225.000000pt" viewBox="0 0 225.000000 225.000000"
 preserveAspectRatio="xMidYMid meet" style="background: #fff">

<g transform="translate(0.000000,225.000000) scale(0.100000,-0.100000)"
fill="#003c7d" stroke="none">
<path d="M1130 1690 l0 -560 560 0 560 0 0 560 0 560 -560 0 -560 0 0 -560z
m468 334 c2 -17 -4 -22 -40 -30 l-43 -9 -3 -213 c-3 -224 3 -271 40 -317 71
-90 247 -82 303 15 18 32 20 56 23 249 2 118 1 224 -2 237 -4 15 -19 27 -48
36 -31 11 -44 21 -46 37 -3 21 -3 22 135 19 121 -3 138 -5 141 -20 2 -13 -8
-22 -36 -34 l-40 -15 -4 -232 c-3 -229 -4 -233 -30 -283 -51 -98 -136 -144
-264 -144 -132 0 -225 54 -259 149 -12 34 -15 90 -15 260 0 239 -3 254 -60
266 -34 7 -44 19 -36 41 5 12 29 14 143 12 131 -3 138 -4 141 -24z"/>
<path d="M300 2031 c0 -13 11 -23 35 -31 19 -6 40 -20 45 -30 13 -25 13 -525
0 -550 -6 -11 -28 -25 -50 -31 -32 -10 -40 -17 -40 -36 l0 -23 275 0 275 0 0
24 c0 12 3 51 6 85 6 57 6 61 -14 61 -12 0 -28 -13 -41 -34 -33 -52 -73 -66
-194 -66 l-104 0 -6 83 c-9 104 -9 470 -1 491 3 9 24 21 45 26 29 8 39 16 39
30 0 19 -8 20 -135 20 -127 0 -135 -1 -135 -19z"/>
<path d="M0 560 l0 -560 560 0 560 0 0 560 0 560 -560 0 -560 0 0 -560z m465
129 c48 -121 91 -217 96 -212 4 4 50 103 102 218 l95 210 91 3 c87 3 91 2 91
-18 0 -14 -10 -24 -31 -32 -17 -6 -34 -20 -39 -33 -5 -13 -2 -111 6 -231 20
-296 19 -291 60 -317 22 -14 34 -30 34 -44 0 -23 -2 -23 -125 -23 l-125 0 0
24 c0 19 7 26 31 31 19 4 34 16 39 30 8 20 -4 443 -13 451 -1 2 -47 -91 -101
-207 -93 -197 -101 -209 -126 -209 -15 0 -32 6 -37 13 -5 6 -45 100 -88 207
-43 107 -81 199 -85 203 -4 4 -8 -15 -9 -43 -1 -27 -8 -128 -16 -223 -8 -94
-15 -177 -15 -184 0 -6 23 -19 50 -28 42 -14 50 -21 50 -41 l0 -24 -125 0
c-124 0 -125 0 -125 23 0 15 9 29 26 37 14 8 32 26 39 40 14 28 59 435 53 491
-2 28 -9 37 -40 52 -25 11 -38 24 -38 37 0 19 7 20 94 20 l94 0 87 -221z"/>
<path d="M1661 928 c-123 -14 -216 -81 -270 -197 -24 -51 -26 -67 -26 -181 0
-110 3 -131 24 -178 30 -67 105 -135 174 -159 38 -13 81 -18 157 -18 89 0 113
4 158 24 56 25 57 27 43 64 l-10 24 -58 -19 c-45 -16 -75 -19 -134 -15 -113 7
-183 49 -231 138 -20 39 -23 58 -23 159 0 110 1 117 31 170 85 150 317 168
374 29 9 -21 19 -29 36 -29 23 0 24 2 24 79 l0 79 -47 15 c-60 19 -140 25
-222 15z"/>
</g>
</svg>
